<?xml version="1.0" encoding="UTF-8"?>
<svg version="1.1" xmlns="http://www.w3.org/2000/svg" width="64" height="64">
<path d="M0 0 C0 1.65 0 3.3 0 5 C0.33 5 0.66 5 1 5 C1.92859709 20.54540319 -3.4030572 33.56874891 -13.39453125 45.30078125 C-17.72817727 49.79036056 -22.46543148 54.06265916 -28 57 C-34.65565721 56.94792131 -40.19670627 51.14291872 -45 47 C-52.537379 39.19473354 -57.2002479 31.26995093 -57.82421875 20.359375 C-57.94767574 17.97716102 -57.94767574 17.97716102 -58.515625 15.59765625 C-59.07860105 12.57847016 -59.09622529 9.75650108 -59.0625 6.6875 C-59.05347656 5.61886719 -59.04445312 4.55023438 -59.03515625 3.44921875 C-59.02355469 2.64097656 -59.01195312 1.83273437 -59 1 C-57.17215398 0.03124161 -55.33739059 -0.92446873 -53.5 -1.875 C-51.96859375 -2.67550781 -51.96859375 -2.67550781 -50.40625 -3.4921875 C-34.13335118 -10.69555785 -15.39878132 -8.07681177 0 0 Z M-53 4 C-53.64570271 17.29071407 -52.26754851 27.76329609 -43 38 C-40.61996611 40.38003389 -38.21970937 42.72419836 -35.7578125 45.01953125 C-34 47 -34 47 -34 50 C-31.29077332 51.35404033 -31.29077332 51.35404033 -28 52 C-15.47719508 45.67461241 -7.48829235 31.72058736 -3 19 C-3.66 18.67 -4.32 18.34 -5 18 C-5 13.05 -5 8.1 -5 3 C-6.85625 2.360625 -8.7125 1.72125 -10.625 1.0625 C-11.66914062 0.70285156 -12.71328125 0.34320313 -13.7890625 -0.02734375 C-27.1216048 -4.06603357 -40.74453536 -2.45309864 -53 4 Z M-2 8 C-1 12 -1 12 -1 12 Z M-3 13 C-2 16 -2 16 -2 16 Z " fill="#23CF2E" transform="translate(61,7)"/>
<path d="M0 0 C2.31 0 4.62 0 7 0 C7 3.96 7 7.92 7 12 C10.96 12 14.92 12 19 12 C19 8.04 19 4.08 19 0 C21.31 0 23.62 0 26 0 C26 9.9 26 19.8 26 30 C23.69 30 21.38 30 19 30 C19 26.37 19 22.74 19 19 C15.04 19 11.08 19 7 19 C7 22.63 7 26.26 7 30 C4.69 30 2.38 30 0 30 C0 20.1 0 10.2 0 0 Z " fill="#1DCF27" transform="translate(19,13)"/>
<path d="M0 0 C0.33 0 0.66 0 1 0 C1.92859709 15.54540319 -3.4030572 28.56874891 -13.39453125 40.30078125 C-17.72817727 44.79036056 -22.46543148 49.06265916 -28 52 C-34.65565721 51.94792131 -40.19670627 46.14291872 -45 42 C-50.19151408 36.6239733 -55.08754746 30.3636952 -57 23 C-56.505 21.515 -56.505 21.515 -56 20 C-55.57589844 20.6290625 -55.15179688 21.258125 -54.71484375 21.90625 C-48.02945862 31.66250434 -41.14108565 40.94519936 -29.9921875 45.890625 C-26.04734982 46.10720432 -23.51516145 42.98437365 -20.6640625 40.56640625 C-9.77782311 30.07922255 -4.55636864 18.11638814 -1.578125 3.51953125 C-1 1 -1 1 0 0 Z " fill="#FAF9F9" transform="translate(61,12)"/>
<path d="M0 0 C0.66 0 1.32 0 2 0 C2.02578125 0.95519531 2.0515625 1.91039062 2.078125 2.89453125 C2.86349425 20.79738032 9.21016597 30.72175933 22 43 C20.515 43.495 20.515 43.495 19 44 C9.17456395 38.38274489 1.23457766 28.84931255 -2 18 C-1.625 15.671875 -1.625 15.671875 -1 14 C-0.67 14.66 -0.34 15.32 0 16 C0 10.72 0 5.44 0 0 Z " fill="#30CC39" transform="translate(6,11)"/>
<path d="M0 0 C0.66 0 1.32 0 2 0 C2.04898437 0.97839844 2.09796875 1.95679688 2.1484375 2.96484375 C2.55892238 10.16248379 3.15869223 17.00303049 5 24 C4.01 23.01 3.02 22.02 2 21 C1.34 21.66 0.68 22.32 0 23 C-2.09230769 18.56923077 -2.09230769 18.56923077 -1.625 15.6875 C-1.41875 15.130625 -1.2125 14.57375 -1 14 C-0.67 14.66 -0.34 15.32 0 16 C0 10.72 0 5.44 0 0 Z " fill="#46C94D" transform="translate(6,11)"/>
<path d="M0 0 C3.68040867 2.32446864 5.2994906 4.07965475 6.3125 8.25 C6.539375 9.4875 6.76625 10.725 7 12 C3.16674584 10.54600704 1.71720395 8.6919885 0 5 C-0.1875 2.1875 -0.1875 2.1875 0 0 Z " fill="#1FCF2B" transform="translate(7,31)"/>
<path d="M0 0 C0.99 0 1.98 0 3 0 C3.33 1.98 3.66 3.96 4 6 C4.33 6 4.66 6 5 6 C4.67 9.3 4.34 12.6 4 16 C3.34 16 2.68 16 2 16 C2 11.05 2 6.1 2 1 C1.34 0.67 0.68 0.34 0 0 Z " fill="#35C93E" transform="translate(54,9)"/>
<path d="M0 0 C2.31 1.98 4.62 3.96 7 6 C6.01 6.33 5.02 6.66 4 7 C2 5.1875 2 5.1875 0 3 C0 2.01 0 1.02 0 0 Z " fill="#63CC68" transform="translate(21,48)"/>
</svg>
